<svg xmlns="http://www.w3.org/2000/svg" viewBox="0 0 900 400" width="100%" style="max-width:900px;font-family:'SFMono-Regular',Menlo,Consolas,monospace;background:#fafafa;">
  <defs>
    <marker id="f2-green" markerWidth="10" markerHeight="10" refX="8" refY="5" orient="auto">
      <path d="M0,0 L10,5 L0,10 z" fill="#50C878"/>
    </marker>
  </defs>

  <text x="450" y="36" text-anchor="middle" font-size="16" font-weight="600" fill="#222">
    Frame 2 — Lua reads the args off the stack and runs the function
  </text>

  <!-- Crystal (waiting) -->
  <g transform="translate(30, 70)">
    <rect x="0" y="0" width="220" height="290" rx="10" fill="#fff" stroke="#cfcfcf" stroke-width="2"/>
    <text x="110" y="26" text-anchor="middle" font-size="14" font-weight="700" fill="#4A90E2">Crystal</text>
    <line x1="20" y1="38" x2="200" y2="38" stroke="#eee"/>
    <g font-size="13" fill="#bbb">
      <text x="22" y="68">push fn  sum</text>
      <text x="22" y="92">push     3</text>
      <text x="22" y="116">push     5</text>
      <text x="22" y="140">call(nargs=2)</text>
    </g>
    <text x="22" y="184" font-size="13" fill="#555" font-style="italic">. . . wait . . .</text>
    <rect x="14" y="170" width="192" height="20" rx="3" fill="#FFE9A8" opacity="0.7"/>
  </g>

  <!-- Stack: empty, with CALL flash in the middle (exactly like the GIF) -->
  <g transform="translate(340, 70)">
    <rect x="0" y="0" width="260" height="290" rx="10" fill="#fff" stroke="#cfcfcf" stroke-width="2"/>
    <text x="130" y="26" text-anchor="middle" font-size="14" font-weight="700" fill="#666">The Lua stack</text>
    <text x="130" y="42" text-anchor="middle" font-size="11" fill="#999">(shared exchange counter)</text>

    <line x1="20" y1="268" x2="240" y2="268" stroke="#dcdcdc" stroke-width="2" stroke-dasharray="4,4"/>
    <text x="130" y="284" text-anchor="middle" font-size="10" fill="#aaa">bottom of stack</text>

    <g transform="translate(130, 145)">
      <circle cx="0" cy="0" r="54" fill="#FFD166" opacity="0.30"/>
      <text x="0" y="6" text-anchor="middle" font-size="22" font-weight="700" fill="#B45309">CALL</text>
    </g>
  </g>

  <!-- Stack -> Lua: consume arrow -->
  <g transform="translate(610, 230)">
    <line x1="0" y1="0" x2="55" y2="0" stroke="#50C878" stroke-width="2.5" marker-end="url(#f2-green)"/>
    <text x="30" y="-18" text-anchor="middle" font-size="12" font-weight="600" fill="#50C878">consume</text>
  </g>

  <!-- Lua running -->
  <g transform="translate(680, 70)">
    <rect x="0" y="0" width="200" height="290" rx="10" fill="#fff" stroke="#cfcfcf" stroke-width="2"/>
    <text x="100" y="26" text-anchor="middle" font-size="14" font-weight="700" fill="#50C878">Lua</text>
    <line x1="14" y1="38" x2="186" y2="38" stroke="#eee"/>
    <rect x="8" y="50" width="184" height="58" rx="4" fill="#D4F4DD" opacity="0.7"/>
    <g font-size="12" fill="#555">
      <text x="14" y="62">function sum(x, y)</text>
      <text x="14" y="82">&#160;&#160;return x + y</text>
      <text x="14" y="102">end</text>
    </g>

    <g transform="translate(100, 150)">
      <text x="0" y="0" text-anchor="middle" font-size="12" fill="#2D6A4F">x = 3, y = 5</text>
      <text x="0" y="22" text-anchor="middle" font-size="14" font-weight="700" fill="#2D6A4F">x + y = 8</text>
    </g>

    <g font-size="11" fill="#666" transform="translate(0, 210)">
      <text x="100" y="0" text-anchor="middle" fill="#aaa">behind the scenes:</text>
      <text x="14" y="22">y = pop()    -- 5</text>
      <text x="14" y="42">x = pop()    -- 3</text>
      <text x="14" y="62">push(x + y)  -- 8</text>
    </g>
  </g>

  <text x="450" y="388" text-anchor="middle" font-size="13" fill="#666">
    Crystal triggers CALL — Lua takes the args off the top and runs the function.
  </text>
</svg>
